<svg width="116" height="27" viewBox="0 0 116 27" fill="none" xmlns="http://www.w3.org/2000/svg">
<path d="M7.944 0.295998C10.128 0.295998 11.952 0.499999 13.416 0.907999C14.904 1.316 16.02 2 16.764 2.96C17.532 3.896 17.916 5.144 17.916 6.704C17.916 7.712 17.736 8.612 17.376 9.404C17.016 10.172 16.488 10.82 15.792 11.348C15.12 11.852 14.28 12.188 13.272 12.356V12.536C14.304 12.704 15.228 13.016 16.044 13.472C16.86 13.904 17.508 14.54 17.988 15.38C18.468 16.22 18.708 17.312 18.708 18.656C18.708 20.216 18.336 21.548 17.592 22.652C16.872 23.732 15.828 24.56 14.46 25.136C13.116 25.712 11.508 26 9.636 26H0.42V0.295998H7.944ZM8.592 11.024C10.608 11.024 11.988 10.7 12.732 10.052C13.5 9.404 13.884 8.444 13.884 7.172C13.884 5.876 13.428 4.952 12.516 4.4C11.604 3.848 10.152 3.572 8.16 3.572H4.308V11.024H8.592ZM4.308 14.192V22.76H9.024C11.112 22.76 12.564 22.352 13.38 21.536C14.196 20.72 14.604 19.64 14.604 18.296C14.604 17.48 14.424 16.76 14.064 16.136C13.704 15.512 13.092 15.032 12.228 14.696C11.388 14.36 10.236 14.192 8.772 14.192H4.308ZM33.189 6.236C33.525 6.236 33.897 6.26 34.305 6.308C34.713 6.332 35.049 6.368 35.313 6.416L34.917 9.98C34.653 9.908 34.341 9.848 33.981 9.8C33.621 9.752 33.285 9.728 32.973 9.728C32.253 9.728 31.557 9.872 30.885 10.16C30.237 10.424 29.649 10.82 29.121 11.348C28.593 11.852 28.173 12.476 27.861 13.22C27.573 13.964 27.429 14.816 27.429 15.776V26H23.613V6.596H26.637L27.141 10.052H27.285C27.693 9.356 28.185 8.72 28.761 8.144C29.337 7.568 29.997 7.112 30.741 6.776C31.485 6.416 32.301 6.236 33.189 6.236ZM45.7268 6.236C48.1748 6.236 49.9988 6.776 51.1988 7.856C52.3988 8.912 52.9988 10.58 52.9988 12.86V26H50.2988L49.5428 23.3H49.3988C48.8468 23.996 48.2708 24.572 47.6708 25.028C47.0948 25.484 46.4228 25.82 45.6548 26.036C44.9108 26.252 43.9988 26.36 42.9188 26.36C41.7668 26.36 40.7228 26.156 39.7868 25.748C38.8748 25.316 38.1548 24.668 37.6268 23.804C37.0988 22.916 36.8348 21.812 36.8348 20.492C36.8348 18.524 37.5788 17.024 39.0668 15.992C40.5788 14.96 42.8708 14.396 45.9428 14.3L49.2548 14.192V13.112C49.2548 11.672 48.9308 10.664 48.2828 10.088C47.6348 9.512 46.7228 9.224 45.5468 9.224C44.5388 9.224 43.5788 9.368 42.6668 9.656C41.7548 9.944 40.8908 10.292 40.0748 10.7L38.8508 7.928C39.7628 7.448 40.8068 7.052 41.9828 6.74C43.1828 6.404 44.4308 6.236 45.7268 6.236ZM46.6268 16.748C44.4188 16.844 42.8828 17.216 42.0188 17.864C41.1788 18.488 40.7588 19.376 40.7588 20.528C40.7588 21.536 41.0588 22.268 41.6588 22.724C42.2828 23.18 43.0628 23.408 43.9988 23.408C45.5108 23.408 46.7588 22.988 47.7428 22.148C48.7268 21.308 49.2188 20.048 49.2188 18.368V16.676L46.6268 16.748Z" fill="#2A2940"/>
<path d="M78.0267 0.295998L68.9547 26H64.9227L55.8867 0.295998H59.8827L65.3907 16.424C65.6067 17 65.8107 17.624 66.0027 18.296C66.1947 18.944 66.3747 19.592 66.5427 20.24C66.7107 20.888 66.8427 21.5 66.9387 22.076C67.0587 21.5 67.1907 20.888 67.3347 20.24C67.5027 19.592 67.6827 18.932 67.8747 18.26C68.0907 17.588 68.2947 16.964 68.4867 16.388L73.9947 0.295998H78.0267ZM87.844 6.236C90.292 6.236 92.116 6.776 93.316 7.856C94.516 8.912 95.116 10.58 95.116 12.86V26H92.416L91.66 23.3H91.516C90.964 23.996 90.388 24.572 89.788 25.028C89.212 25.484 88.54 25.82 87.772 26.036C87.028 26.252 86.116 26.36 85.036 26.36C83.884 26.36 82.84 26.156 81.904 25.748C80.992 25.316 80.272 24.668 79.744 23.804C79.216 22.916 78.952 21.812 78.952 20.492C78.952 18.524 79.696 17.024 81.184 15.992C82.696 14.96 84.988 14.396 88.06 14.3L91.372 14.192V13.112C91.372 11.672 91.048 10.664 90.4 10.088C89.752 9.512 88.84 9.224 87.664 9.224C86.656 9.224 85.696 9.368 84.784 9.656C83.872 9.944 83.008 10.292 82.192 10.7L80.968 7.928C81.88 7.448 82.924 7.052 84.1 6.74C85.3 6.404 86.548 6.236 87.844 6.236ZM88.744 16.748C86.536 16.844 85 17.216 84.136 17.864C83.296 18.488 82.876 19.376 82.876 20.528C82.876 21.536 83.176 22.268 83.776 22.724C84.4 23.18 85.18 23.408 86.116 23.408C87.628 23.408 88.876 22.988 89.86 22.148C90.844 21.308 91.336 20.048 91.336 18.368V16.676L88.744 16.748ZM108.516 6.236C110.964 6.236 112.788 6.776 113.988 7.856C115.188 8.912 115.788 10.58 115.788 12.86V26H113.088L112.332 23.3H112.188C111.636 23.996 111.06 24.572 110.46 25.028C109.884 25.484 109.212 25.82 108.444 26.036C107.7 26.252 106.788 26.36 105.708 26.36C104.556 26.36 103.512 26.156 102.576 25.748C101.664 25.316 100.944 24.668 100.416 23.804C99.8879 22.916 99.6239 21.812 99.6239 20.492C99.6239 18.524 100.368 17.024 101.856 15.992C103.368 14.96 105.66 14.396 108.732 14.3L112.044 14.192V13.112C112.044 11.672 111.72 10.664 111.072 10.088C110.424 9.512 109.512 9.224 108.336 9.224C107.328 9.224 106.368 9.368 105.456 9.656C104.544 9.944 103.68 10.292 102.864 10.7L101.64 7.928C102.552 7.448 103.596 7.052 104.772 6.74C105.972 6.404 107.22 6.236 108.516 6.236ZM109.416 16.748C107.208 16.844 105.672 17.216 104.808 17.864C103.968 18.488 103.548 19.376 103.548 20.528C103.548 21.536 103.848 22.268 104.448 22.724C105.072 23.18 105.852 23.408 106.788 23.408C108.3 23.408 109.548 22.988 110.532 22.148C111.516 21.308 112.008 20.048 112.008 18.368V16.676L109.416 16.748Z" fill="#FE0000"/>
</svg>
